<?xml version="1.0" encoding="utf-8"?>
<!-- Generator: Adobe Illustrator 25.3.0, SVG Export Plug-In . SVG Version: 6.00 Build 0)  -->
<svg version="1.1" id="Layer_1" xmlns="http://www.w3.org/2000/svg" xmlns:xlink="http://www.w3.org/1999/xlink" x="0px" y="0px"
	 viewBox="0 0 400 200" style="enable-background:new 0 0 400 200;" xml:space="preserve">
<style type="text/css">
	.st0{fill:#FFFFFF;}
	.st1{fill:#3A3837;}
	.st2{fill:#E2531B;}
	.st3{fill:#3B3937;}
	.st4{fill:#474545;}
</style>
<g>
	<rect class="st0" width="400" height="200"/>
	<g>
		<path class="st1" d="M194.88,176.2v14.17h-1.36V176.2h-4.23v-1.32h9.84v1.32H194.88z"/>
		<path class="st1" d="M201.55,190.36v-15.48h7.17v1.32h-5.8v5.68h5.37v1.3h-5.37v5.88h6.13v1.31H201.55z"/>
		<path class="st1" d="M220.12,190.36l-2.21-4.44c-0.22-0.44-0.43-0.81-0.64-1.1s-0.42-0.53-0.64-0.71c-0.22-0.18-0.45-0.3-0.7-0.38
			c-0.25-0.08-0.53-0.11-0.83-0.11h-1.62v6.74h-1.36v-15.48h4.24c0.55,0,1.09,0.09,1.6,0.26c0.52,0.17,0.98,0.43,1.38,0.77
			s0.73,0.76,0.97,1.27c0.24,0.51,0.36,1.1,0.36,1.78c0,0.55-0.08,1.05-0.24,1.51c-0.16,0.46-0.38,0.87-0.67,1.23
			c-0.29,0.36-0.64,0.66-1.06,0.91c-0.41,0.25-0.88,0.43-1.4,0.56v0.04c0.2,0.09,0.38,0.2,0.54,0.33s0.32,0.3,0.48,0.5
			c0.15,0.19,0.31,0.42,0.46,0.67s0.31,0.54,0.47,0.86l2.47,4.79H220.12z M213.47,176.2v6.12h2.44c0.49,0,0.94-0.08,1.35-0.23
			c0.41-0.15,0.76-0.37,1.05-0.65c0.29-0.28,0.52-0.62,0.68-1.01c0.16-0.4,0.24-0.84,0.24-1.34c0-0.9-0.28-1.61-0.83-2.12
			c-0.55-0.51-1.34-0.77-2.38-0.77H213.47z"/>
		<path class="st1" d="M224.22,190.36v-15.48h1.36v14.18h5.91v1.31H224.22z"/>
		<path class="st1" d="M234.66,173.62c-0.12,0-0.24-0.02-0.35-0.07c-0.11-0.05-0.21-0.11-0.29-0.2c-0.08-0.09-0.15-0.19-0.2-0.3
			s-0.07-0.24-0.07-0.38c0-0.13,0.02-0.25,0.07-0.37s0.11-0.21,0.2-0.29c0.08-0.08,0.18-0.14,0.28-0.19
			c0.11-0.05,0.22-0.07,0.34-0.07c0.25,0,0.46,0.08,0.64,0.25c0.18,0.17,0.27,0.39,0.27,0.66c0,0.27-0.09,0.49-0.26,0.67
			C235.12,173.52,234.91,173.62,234.66,173.62z M235.33,190.36h-1.36v-15.48h1.36V190.36z"/>
		<path class="st1" d="M246.86,190.36l-5.98-7.25c-0.16-0.21-0.27-0.36-0.32-0.44h-0.04v7.69h-1.36v-15.48h1.36v7.29h0.04
			c0.05-0.08,0.1-0.16,0.15-0.23c0.05-0.07,0.11-0.15,0.17-0.23l5.72-6.83h1.73l-6.38,7.47l6.8,8.01H246.86z"/>
		<path class="st1" d="M267.21,190.36l-1.78-1.87c-1.35,1.43-2.97,2.14-4.86,2.14c-0.71,0-1.35-0.1-1.92-0.31
			c-0.57-0.21-1.06-0.49-1.46-0.86c-0.4-0.37-0.71-0.81-0.92-1.32c-0.21-0.51-0.32-1.07-0.32-1.67c0-1.9,1.12-3.42,3.37-4.56
			c-1.08-1.4-1.62-2.62-1.62-3.67c0-0.52,0.09-1,0.28-1.44c0.18-0.44,0.44-0.82,0.78-1.14c0.33-0.32,0.73-0.58,1.18-0.76
			c0.45-0.18,0.96-0.28,1.5-0.28c0.51,0,0.96,0.08,1.37,0.24c0.41,0.16,0.76,0.38,1.05,0.66c0.29,0.28,0.51,0.62,0.67,1
			c0.16,0.39,0.24,0.81,0.24,1.27c0,0.49-0.06,0.93-0.18,1.33s-0.32,0.77-0.59,1.12c-0.27,0.35-0.63,0.68-1.06,0.99
			c-0.43,0.31-0.96,0.62-1.58,0.93c0.62,0.68,1.27,1.39,1.96,2.12c0.69,0.73,1.43,1.49,2.22,2.3c0.18-0.29,0.35-0.61,0.51-0.96
			c0.15-0.35,0.29-0.71,0.39-1.1c0.11-0.38,0.2-0.77,0.26-1.17s0.1-0.79,0.11-1.18h1.26c-0.04,1.95-0.61,3.72-1.73,5.31
			c0.37,0.38,0.78,0.81,1.24,1.28c0.46,0.47,0.97,1.01,1.55,1.6L267.21,190.36z M264.64,187.63c-0.81-0.84-1.59-1.66-2.33-2.46
			c-0.74-0.79-1.46-1.58-2.17-2.37c-0.98,0.49-1.7,1.02-2.15,1.59s-0.68,1.24-0.68,1.99c0,0.45,0.08,0.87,0.24,1.24
			c0.16,0.37,0.38,0.69,0.67,0.96s0.63,0.47,1.04,0.62c0.41,0.15,0.86,0.22,1.35,0.22C262.15,189.42,263.5,188.83,264.64,187.63z
			 M260.56,181.31c0.52-0.25,0.96-0.5,1.33-0.76c0.37-0.26,0.67-0.52,0.9-0.79s0.4-0.56,0.51-0.86c0.11-0.3,0.16-0.62,0.16-0.96
			c0-0.32-0.05-0.61-0.16-0.87c-0.11-0.26-0.25-0.49-0.44-0.68s-0.4-0.34-0.65-0.44s-0.51-0.16-0.8-0.16
			c-0.36,0-0.69,0.06-0.98,0.18c-0.29,0.12-0.54,0.29-0.75,0.51c-0.21,0.22-0.36,0.48-0.48,0.78c-0.11,0.3-0.17,0.63-0.17,0.98
			C259.04,179.1,259.55,180.12,260.56,181.31z"/>
		<path class="st1" d="M286.53,190.36l-1.62-4.58h-6.31l-1.58,4.58h-1.52l5.6-15.48h1.37l5.57,15.48H286.53z M282.05,177.59
			c-0.05-0.14-0.1-0.29-0.15-0.48c-0.05-0.18-0.09-0.38-0.13-0.62h-0.04c-0.04,0.23-0.09,0.44-0.14,0.62
			c-0.05,0.18-0.1,0.34-0.15,0.48l-2.38,6.89h5.38L282.05,177.59z"/>
		<path class="st1" d="M293.19,184.56v5.8h-1.36v-5.77l-4.61-9.72h1.55l3.36,7.23c0.04,0.09,0.09,0.22,0.16,0.39
			c0.07,0.17,0.15,0.39,0.25,0.66h0.03c0.04-0.13,0.1-0.28,0.17-0.45c0.07-0.17,0.17-0.37,0.28-0.58l3.52-7.25h1.46L293.19,184.56z"
			/>
		<path class="st1" d="M308.15,190.36l-1.62-4.58h-6.31l-1.58,4.58h-1.52l5.6-15.48h1.37l5.57,15.48H308.15z M303.67,177.59
			c-0.05-0.14-0.1-0.29-0.15-0.48c-0.05-0.18-0.09-0.38-0.13-0.62h-0.04c-0.04,0.23-0.09,0.44-0.14,0.62
			c-0.05,0.18-0.1,0.34-0.15,0.48l-2.38,6.89h5.38L303.67,177.59z"/>
		<path class="st1" d="M319.68,190.36l-5.98-7.25c-0.16-0.21-0.27-0.36-0.32-0.44h-0.04v7.69h-1.36v-15.48h1.36v7.29h0.04
			c0.05-0.08,0.1-0.16,0.15-0.23c0.05-0.07,0.11-0.15,0.17-0.23l5.72-6.83h1.73l-6.38,7.47l6.8,8.01H319.68z"/>
		<path class="st1" d="M331.3,190.36l-5.98-7.25c-0.16-0.21-0.27-0.36-0.32-0.44h-0.04v7.69h-1.36v-15.48h1.36v7.29h0.04
			c0.05-0.08,0.1-0.16,0.15-0.23c0.05-0.07,0.11-0.15,0.17-0.23l5.72-6.83h1.73l-6.38,7.47l6.8,8.01H331.3z"/>
		<path class="st1" d="M344.74,190.36l-1.62-4.58h-6.31l-1.58,4.58h-1.52l5.6-15.48h1.37l5.57,15.48H344.74z M340.26,177.59
			c-0.05-0.14-0.1-0.29-0.15-0.48c-0.05-0.18-0.09-0.38-0.13-0.62h-0.04c-0.04,0.23-0.09,0.44-0.14,0.62
			c-0.05,0.18-0.1,0.34-0.15,0.48l-2.38,6.89h5.38L340.26,177.59z"/>
		<path class="st1" d="M348.58,190.36v-15.48h4.02c0.61,0,1.16,0.09,1.65,0.26c0.49,0.17,0.91,0.42,1.25,0.73
			c0.35,0.31,0.61,0.69,0.79,1.13c0.18,0.44,0.28,0.92,0.28,1.45c0,0.45-0.06,0.86-0.17,1.25s-0.28,0.74-0.5,1.06
			c-0.22,0.32-0.49,0.6-0.81,0.83c-0.32,0.23-0.68,0.42-1.08,0.56v0.04c0.49,0.05,0.94,0.18,1.34,0.38s0.75,0.46,1.04,0.79
			s0.51,0.7,0.67,1.14s0.24,0.91,0.24,1.43c0,0.65-0.11,1.25-0.34,1.8c-0.23,0.54-0.54,1.01-0.95,1.4c-0.41,0.39-0.89,0.7-1.45,0.91
			s-1.18,0.32-1.86,0.32H348.58z M349.94,176.2v5.5h1.91c0.5,0,0.95-0.07,1.35-0.21c0.4-0.14,0.75-0.33,1.04-0.59
			c0.29-0.26,0.51-0.57,0.66-0.94c0.15-0.37,0.23-0.78,0.23-1.24c0-1.68-0.99-2.52-2.97-2.52H349.94z M349.94,182.99v6.07h2.53
			c1.09,0,1.92-0.27,2.51-0.8c0.58-0.54,0.88-1.3,0.88-2.28c0-1.99-1.28-2.98-3.84-2.98H349.94z"/>
		<path class="st1" d="M361.67,190.36h-1.36v-15.48h1.36V190.36z"/>
	</g>
	<g>
		<path class="st2" d="M2.36,122.5c0-12.71,0.22-25.42-0.08-38.11c-0.2-8.65,2.49-16.29,7.09-23.27
			c8.86-13.44,21.51-20.54,37.64-20.98c24.24-0.66,45.41,19.7,45.89,43.99c0.12,6.14,0.1,12.28-0.01,18.41
			c-0.03,1.74,0.53,2.95,1.7,4.15c8.74,8.92,17.42,17.91,26.17,26.82c1.3,1.32,1.81,2.68,1.79,4.55c-0.1,9.06-0.07,18.13-0.04,27.19
			c0.02,6.05,2.6,10.66,8.17,13.17c5.49,2.47,10.61,1.44,15.1-2.5c0.98-0.86,1.66-0.84,2.56-0.05c1.77,1.55,3.55,3.09,5.39,4.56
			c1.07,0.86,1.23,1.53,0.18,2.57c-6.09,6.06-13.55,8.9-21.84,7.2c-11.52-2.36-19.92-11.23-20.24-24.03
			c-0.2-7.99-0.08-15.99,0-23.98c0.02-1.7-0.43-2.95-1.63-4.18c-8.89-9.07-17.7-18.23-26.59-27.31c-1.09-1.12-1.48-2.27-1.49-3.8
			c-0.05-8.35,0.42-16.71-0.22-25.04c-1.19-15.72-14.77-29.33-30.49-30.76c-16.96-1.54-31.39,7.73-36.87,23.76
			c-1.16,3.39-1.68,6.92-1.67,10.52c0.02,27.2,0,54.39,0.06,81.59c0,1.96-0.68,2.5-2.49,2.39c-1.99-0.12-4.01-0.17-5.99,0.02
			c-1.78,0.16-2.14-0.51-2.13-2.14c0.06-11.56,0.03-23.13,0.03-34.69C2.36,129.21,2.36,125.86,2.36,122.5z"/>
		<path class="st2" d="M111.8,63.27c0-14.91,0.03-29.83-0.04-44.74c-0.01-1.9,0.59-2.56,2.45-2.44c1.99,0.12,4,0.12,5.99,0
			c1.78-0.1,2.35,0.56,2.34,2.34c-0.06,15.7,0.01,31.4-0.09,47.09c-0.01,2.13,0.64,2.7,2.66,2.67c6.49-0.1,12.99,0.01,19.48-0.08
			c1.67-0.02,2.35,0.48,2.28,2.18c-0.09,2.14-0.11,4.29,0.01,6.42c0.1,1.75-0.67,2.21-2.28,2.19c-6.49-0.06-12.99,0.04-19.48-0.07
			c-2.07-0.04-2.69,0.61-2.67,2.69c0.1,12.34,0.07,24.69,0.08,37.03c0,0.48,0.23,1.1-0.31,1.36c-0.64,0.31-1.02-0.24-1.41-0.66
			c-2.56-2.69-5.1-5.39-7.72-8.02c-0.99-1-1.32-2.07-1.32-3.44C111.81,92.95,111.8,78.11,111.8,63.27z"/>
		<path class="st2" d="M81.99,146.68c0-6.91,0-13.82,0-20.73c0-0.49-0.16-1.11,0.37-1.35c0.62-0.29,1.07,0.22,1.46,0.63
			c2.77,2.87,5.52,5.76,8.3,8.63c0.64,0.66,0.85,1.41,0.84,2.32c-0.02,10.4-0.03,20.81,0.02,31.21c0.01,1.47-0.51,2.06-2,2
			c-2.21-0.08-4.42-0.1-6.63-0.01c-1.77,0.07-2.36-0.61-2.34-2.39c0.08-6.77,0.03-13.54,0.03-20.31
			C82.03,146.68,82.01,146.68,81.99,146.68z"/>
	</g>
	<g>
		<path class="st3" d="M335.22,46.62c0-8.78,0-17.56,0-26.34c0-3.16,0.94-4.12,4.07-4.11c4.64,0.01,9.3-0.18,13.92,0.14
			c4.9,0.34,9.29,2.06,12.24,6.39c4.13,6.06,4.4,19.69-4.41,24.27c-1.08,0.56-1.13,1.04-0.07,1.81c4,2.91,6.11,6.87,6.23,11.83
			c0.11,4.42,0.18,8.85,0.21,13.28c0.02,2.27-1.19,3.65-3.02,3.65c-1.83-0.01-3.02-1.35-3.08-3.64c-0.11-4.35-0.18-8.7-0.26-13.06
			c-0.11-5.89-2.61-9.01-8.29-10.28c-3.31-0.74-6.69-0.32-10.04-0.41c-1.16-0.03-1.28,0.79-1.28,1.77
			c0.05,7.07,0.06,14.13,0.09,21.2c0,0.29,0.03,0.57,0.01,0.86c-0.15,2.04-1.57,3.57-3.29,3.55c-1.76-0.02-3.01-1.51-3.02-3.7
			C335.21,64.75,335.22,55.69,335.22,46.62z M341.31,33.13c0,3.35,0.02,6.7-0.01,10.05c-0.01,1.07,0.21,1.93,1.45,1.86
			c3.56-0.18,7.14,0.24,10.67-0.33c3.45-0.56,6.15-2.34,7.51-5.64c1.65-3.98,1.65-8.05-0.06-12.05c-0.91-2.12-2.47-3.62-4.58-4.56
			c-4.51-2-9.27-0.94-13.93-1.11c-1.01-0.04-1.08,0.87-1.07,1.73C341.33,26.43,341.31,29.78,341.31,33.13z"/>
		<path class="st3" d="M353.52,135.06c0,7.21,0,14.42,0,21.63c0,2.39-1.14,3.94-2.9,4.02c-1.84,0.08-3.14-1.57-3.15-4.02
			c0-7.64-0.05-15.28,0.05-22.91c0.02-1.92-0.59-2.42-2.47-2.38c-5.49,0.13-10.99,0.1-16.49,0.03c-1.73-0.02-2.33,0.46-2.31,2.31
			c0.11,7.78,0.03,15.56,0.07,23.34c0.01,1.6-0.56,2.76-2.03,3.43c-1.26,0.57-2.21-0.06-3.1-0.82c-0.71-0.6-0.86-1.44-0.86-2.33
			c0.03-14.56-0.15-29.13,0.13-43.69c0.19-10.24,8.25-16.78,18.4-15.54c9.15,1.12,14.27,6.49,14.56,15.73
			c0.22,7.06,0.04,14.13,0.04,21.2C353.48,135.06,353.5,135.06,353.52,135.06z M336.78,126.28
			C336.78,126.28,336.78,126.28,336.78,126.28c2.93,0.01,5.85,0,8.78,0.01c0.98,0,2.03-0.04,1.99-1.34
			c-0.15-4.91,0.55-9.87-0.75-14.7c-1.25-4.62-5.38-7.32-10.64-7.14c-4.48,0.16-8.2,3.43-9.26,7.8c-1.06,4.38-0.4,8.81-0.71,13.21
			c-0.13,1.81,0.67,2.21,2.24,2.18C331.22,126.23,334,126.28,336.78,126.28z"/>
		<path class="st3" d="M229.54,51.76c0-7.42-0.22-14.85,0.08-22.26c0.2-4.78,2.16-8.97,6.37-11.79c7.78-5.2,19.64-3.18,23.97,4.17
			c1.62,2.74,2.58,5.76,2.6,8.95c0.07,14.42,0.06,28.84,0.06,43.26c0,1.92-1.43,3.44-3.08,3.45c-1.69,0-2.96-1.41-2.96-3.51
			c-0.02-7.78-0.08-15.56,0.06-23.34c0.04-2.06-0.62-2.57-2.56-2.53c-5.5,0.1-10.99,0.09-16.49,0c-1.8-0.03-2.29,0.56-2.26,2.36
			c0.12,7.78,0.09,15.56,0.09,23.34c0,2.13-1.33,3.67-3.05,3.69c-1.72,0.02-2.93-1.48-2.94-3.71c-0.01-7.35,0-14.7,0-22.06
			C229.46,51.76,229.5,51.76,229.54,51.76z M245.8,43.14C245.8,43.14,245.8,43.14,245.8,43.14c2.93,0.01,5.85,0,8.78,0.01
			c0.96,0,2.14,0,2.05-1.26c-0.34-4.76,0.48-9.57-0.64-14.29c-1.06-4.46-4.81-7.49-9.61-7.65c-4.9-0.17-8.94,2.68-10.26,7.11
			c-1.37,4.63-0.48,9.37-0.81,14.05c-0.11,1.65,0.59,2.11,2.13,2.07C240.23,43.08,243.01,43.14,245.8,43.14z"/>
		<path class="st3" d="M195.51,128.7c0.17-4.53-0.4-10.18,0.25-15.79c1.09-9.44,8.33-15.45,17.85-14.89
			c7.37,0.44,12.97,3.54,15.58,10.86c0.75,2.11,1.04,4.31,1.05,6.51c0.06,9.56,0.13,19.11-0.01,28.67
			c-0.1,6.58-2.33,12.12-8.57,15.39c-8.8,4.61-22.27,1.64-25.35-9.62c-0.57-2.08-0.78-4.2-0.79-6.35
			C195.5,138.92,195.51,134.36,195.51,128.7z M201.53,129.75C201.52,129.75,201.52,129.75,201.53,129.75
			c-0.01,2.42-0.01,4.85-0.01,7.27c0,2.42-0.04,4.85,0.02,7.27c0.18,6.56,3,10.28,8.97,11.9c5.03,1.36,11.44-1.98,12.8-6.75
			c0.61-2.13,0.96-4.29,0.95-6.53c-0.04-8.63-0.03-17.25-0.01-25.88c0-1.94-0.2-3.82-0.65-5.71c-1.45-6.08-7.95-9.75-13.94-7.81
			c-5.33,1.72-8.01,5.5-8.12,11.7C201.46,120.06,201.53,124.91,201.53,129.75z"/>
		<path class="st3" d="M272.81,46.63c0-8.78,0-17.55,0-26.33c0-3.34,0.8-4.13,4.2-4.14c4-0.01,7.99,0.01,11.99,0
			c11.02-0.04,16.22,6.15,16.58,15.97c0.36,9.62,0.14,19.26,0.05,28.89c-0.03,3.08-0.78,6.09-2.29,8.81
			c-2.73,4.92-7.23,6.94-12.58,7.17c-4.84,0.2-9.7,0.11-14.56,0.06c-2.43-0.03-3.39-1.13-3.4-3.67
			C272.8,64.46,272.81,55.54,272.81,46.63z M278.73,46.39C278.73,46.39,278.73,46.39,278.73,46.39c-0.01,7.84,0.02,15.69-0.04,23.53
			c-0.01,1.58,0.5,2.18,2.09,2.11c2.28-0.1,4.56,0,6.84-0.04c1.7-0.03,3.41,0.19,5.09-0.37c4.58-1.52,6.43-5.06,6.65-9.49
			c0.26-5.41,0.19-10.83,0.2-16.25c0-4.92,0.08-9.85-0.19-14.75c-0.35-6.24-3.94-10.16-10.42-9.87c-2.78,0.13-5.56,0.06-8.34,0
			c-1.47-0.03-1.94,0.5-1.92,2.03C278.78,30.99,278.73,38.69,278.73,46.39z"/>
		<path class="st3" d="M397.7,135.05c0,7.21,0,14.42,0,21.62c0,2.07-1.82,4.04-3.7,4.02c-1.79-0.02-2.88-1.51-2.88-3.99
			c-0.01-13.49-0.01-26.98,0-40.46c0-2.89-0.4-5.69-1.83-8.25c-1.95-3.5-6.57-5.44-11.13-4.73c-4.01,0.63-7.15,3.62-8.13,7.53
			c-0.53,2.1-0.71,4.2-0.7,6.35c0.02,13.06,0.01,26.12,0.01,39.18c0,0.57,0.02,1.15-0.04,1.71c-0.17,1.61-1.29,2.42-2.7,2.6
			c-1.4,0.19-2.42-0.6-3.01-1.92c-0.33-0.75-0.31-1.53-0.31-2.31c0-13.42,0-26.83,0.01-40.25c0-3.38,0.45-6.7,1.97-9.76
			c2.83-5.66,9.16-8.88,16.08-8.36c7.1,0.54,12.21,3.64,14.86,10.59c0.99,2.59,1.56,5.07,1.53,7.81
			C397.64,122.63,397.7,128.84,397.7,135.05z"/>
		<path class="st3" d="M213.61,52.46c0-6.42,0.02-12.85,0-19.27c-0.01-3.02-0.26-6.02-1.99-8.62c-2.6-3.9-6.43-4.97-10.84-4.37
			c-4.24,0.58-7.14,3.31-8.21,7.34c-0.52,1.96-0.71,3.92-0.71,5.92c0.01,13.13,0.01,26.26,0.01,39.39c0,0.71,0.03,1.44-0.08,2.13
			c-0.23,1.45-1.24,2.26-2.59,2.49c-1.33,0.22-2.32-0.49-2.98-1.64c-0.48-0.84-0.53-1.75-0.53-2.69
			c0.02-13.27,0.01-26.55,0.02-39.82c0-2.58,0.37-5.12,1.08-7.6c2.36-8.22,10.04-11.45,17.55-10.82c9.43,0.8,15.07,6.6,15.25,16.3
			c0.26,14.27,0.11,28.54,0.1,42.82c0,2.03-1.56,3.59-3.28,3.49c-1.67-0.09-2.77-1.49-2.77-3.65
			C213.6,66.73,213.61,59.59,213.61,52.46z"/>
		<path class="st3" d="M240.02,129.71c0-8.77,0-17.55,0-26.32c0-3.19,0.91-4.13,4.03-4.11c5.21,0.03,10.43-0.15,15.61,0.22
			c9.37,0.67,14.57,6.37,14.77,15.79c0.06,2.63-0.02,5.25-0.89,7.82c-1.84,5.42-5.79,8.25-11.17,9.44
			c-4.58,1.01-9.24,0.68-13.86,0.63c-1.97-0.02-2.54,0.5-2.49,2.55c0.15,7.06,0.05,14.12,0.07,21.18c0,1.66-0.61,2.88-2.19,3.57
			c-1.27,0.56-2.22-0.03-3.1-0.81c-0.91-0.81-0.78-1.93-0.79-3C240.02,147.69,240.02,138.7,240.02,129.71z M245.99,116.2
			C245.99,116.2,245.99,116.2,245.99,116.2c-0.01,3.35,0.03,6.7-0.03,10.05c-0.02,1.37,0.46,1.94,1.86,1.91
			c3.06-0.07,6.13,0,9.19-0.07c2.08-0.05,4.12-0.43,5.99-1.38c4.41-2.24,6.61-8.36,5.18-13.95c-1.14-4.45-3.81-7.19-8.37-8.05
			c-3.89-0.73-7.83-0.15-11.73-0.42c-1.64-0.11-2.15,0.53-2.12,2.08C246.04,109.65,245.99,112.93,245.99,116.2z"/>
		<path class="st3" d="M169.56,131.63c0-8.35-0.05-16.7,0.04-25.04c0.02-1.81-0.56-2.37-2.34-2.3c-3.21,0.12-6.42,0.02-9.63,0.05
			c-1.67,0.02-2.92-0.72-2.99-2.37c-0.08-1.8,1.25-2.67,2.95-2.67c9.99-0.03,19.98-0.02,29.97,0c1.7,0,3.04,0.82,3,2.63
			c-0.05,1.85-1.47,2.42-3.16,2.41c-3.07-0.02-6.14,0.12-9.2-0.05c-2-0.11-2.56,0.55-2.56,2.53c0.07,16.48,0.05,32.96,0.05,49.45
			c0,0.5,0.06,1.01-0.03,1.5c-0.33,1.75-1.45,2.96-3.19,2.88c-1.71-0.08-2.87-1.22-2.91-3.1c-0.04-1.93-0.01-3.85-0.01-5.78
			C169.55,145.05,169.55,138.34,169.56,131.63C169.55,131.63,169.56,131.63,169.56,131.63z"/>
		<path class="st3" d="M299.89,131.68c0,8.49-0.02,16.99,0.02,25.48c0.01,1.77-0.81,2.87-2.36,3.42c-1.35,0.48-2.32-0.38-3.14-1.32
			c-0.67-0.76-0.54-1.74-0.54-2.66c0-16.56-0.03-33.12,0.05-49.68c0.01-2.07-0.54-2.77-2.64-2.65c-3.06,0.17-6.14,0.04-9.21,0.05
			c-1.74,0.01-3.03-0.61-3-2.52c0.03-1.89,1.35-2.53,3.05-2.53c9.85-0.01,19.71,0,29.56-0.01c1.72,0,2.96,0.68,3.14,2.51
			c0.16,1.56-1.1,2.53-3.23,2.54c-3.21,0.02-6.43,0.05-9.64-0.03c-1.59-0.04-2.12,0.54-2.1,2.12c0.06,8.42,0.03,16.85,0.03,25.27
			C299.87,131.68,299.88,131.68,299.89,131.68z"/>
		<path class="st3" d="M317.11,46.48c0-9.14,0.02-18.28-0.02-27.41c-0.01-1.65,0.64-2.77,2.2-3.26c1.44-0.45,2.49,0.28,3.32,1.36
			c0.67,0.86,0.47,1.91,0.47,2.9c0.01,16.92,0,33.84,0.01,50.76c0,1.07,0.08,2.14,0.07,3.21c-0.01,1.91-1.37,3.44-3.06,3.49
			c-1.71,0.06-2.99-1.34-3-3.41C317.09,64.9,317.1,55.69,317.11,46.48C317.1,46.48,317.1,46.48,317.11,46.48z"/>
		<path class="st4" d="M320.1,2.5c1.91,0.01,3.69,1.84,3.71,3.81c0.02,1.99-1.85,3.74-3.92,3.67c-1.82-0.06-3.56-1.78-3.6-3.57
			C316.23,4.36,318.06,2.48,320.1,2.5z"/>
	</g>
</g>
</svg>
