<?xml version="1.0" encoding="utf-8"?>
<!-- Generator: Adobe Illustrator 26.2.1, SVG Export Plug-In . SVG Version: 6.00 Build 0)  -->
<svg version="1.1" id="Layer_1" xmlns="http://www.w3.org/2000/svg" xmlns:xlink="http://www.w3.org/1999/xlink" x="0px" y="0px" width="302.514" height="57.727"
	 viewBox="0 0 346.3 57.7" style="enable-background:new 0 0 346.3 57.7;" xml:space="preserve">
<style type="text/css">
	.st0{fill:#00194A;}
	.st1{fill:#00205C;}
</style>
<path id="Path_43684" class="st0" d="M42.2,28.5l12.9-8.5l-15.5,0.2l4.9-14.6L32,14.8L27.5,0L23,14.9L10.5,5.6l4.9,14.7L0,20.1
	l12.6,8.8l-12.5,9l15.5-0.3l-5,14.6l12.5-9.5l4.3,15l4.7-14.9l12.3,9.5l-5.3-14.8L55,37.9L42.2,28.5z M49.2,21.9l-8.5,5.5l-2.8-2.1
	L39,22L49.2,21.9z M41.3,10l-3.4,10.3l-4.2,0l-1.1-3.7L41.3,10z M27.5,6.2l3,9.7l-3,2.2L24.5,16L27.5,6.2z M14,10.5l8.4,6.2
	l-1.1,3.7l-4.1-0.1L14,10.5z M6.1,22H16l1.2,3.5l-3,2.2L6.1,22z M5.7,36l8.4-6.1l3.3,2.3l-1.2,3.5L5.7,36z M14.2,47.3l3.4-9.7l4-0.1
	l1,3.4L14.2,47.3z M27.6,51.4l-2.9-9.9l2.9-2.2l2.8,2.2L27.6,51.4z M31,39.6L27.7,37l-3.5,2.7L23,35.6l-4.7,0.1l1.5-4.1l-4-2.8
	l3.5-2.5L17.9,22h4.8l1.3-4.3l3.5,2.6l3.5-2.6l1.3,4.4l4.9-0.1l-1.3,4l3.2,2.4l-4,2.6l1.4,4.2l-4.2-0.2L31,39.6z M40.3,46.7
	l-7.6-5.8l1.1-3.5l3.4,0.1L40.3,46.7z M38.4,35.4l-1.3-3.6l3.5-2.3l8.7,6.5L38.4,35.4z"/>
<g id="Group_44168" transform="translate(66.398 17.56)">
	<path id="Path_43685" class="st0" d="M18.4-6.4L11,4.7L3.6-6.4h-10L6.9,13.5l0,0V28h8.3V13.4l0,0l8.5-12.7h9.2V28h8.3V0.7h9.7v-7.1
		H18.4z"/>
	<path id="Path_43686" class="st0" d="M75.3-6.4v7.1h6.2l-6.2,6.2v7.5c0,0.9-0.1,1.8-0.3,2.7c-0.2,0.8-0.6,1.6-1.1,2.3
		c-0.5,0.7-1.2,1.2-2,1.6c-1.9,0.8-4,0.8-6,0c-0.8-0.4-1.5-0.9-2-1.6c-0.5-0.7-0.9-1.4-1.1-2.3c-0.2-0.9-0.4-1.8-0.4-2.7V-6.4h-8.2
		v7.1h6.1l-6.1,6.1v8.2c0,1.9,0.3,3.9,1,5.7c0.6,1.6,1.6,3.1,2.9,4.4c1.3,1.3,2.9,2.2,4.6,2.8c3.9,1.4,8.2,1.4,12.2,0
		c1.7-0.6,3.3-1.6,4.7-2.8c1.3-1.2,2.3-2.7,3-4.4c0.7-1.8,1.1-3.7,1-5.7V-6.4H75.3z"/>
</g>
<path class="st1" d="M42.6,28.4L55.4,20l-15.4,0.2l4.8-14.6l-12.4,9.1L28,0l-4.4,14.8L11.1,5.6L16,20.2L0.7,20l12.5,8.7L0.8,37.6
	l15.4-0.3l-5,14.6l12.5-9.5L28,57.4l4.6-14.9L44.8,52l-5.2-14.7l15.7,0.4L42.6,28.4z M49.6,21.8l-8.4,5.5l-2.8-2l1.1-3.3L49.6,21.8z
	 M41.7,9.9l-3.4,10.2l-4.2,0L33,16.5L41.7,9.9z M28,6.2l2.9,9.7l-3,2.2L25,15.9L28,6.2z M14.6,10.4l8.4,6.2l-1.1,3.7l-4.1-0.1
	L14.6,10.4z M6.8,21.9l9.8,0l1.2,3.5l-3,2.1L6.8,21.9z M6.3,35.8l8.4-6l3.3,2.3l-1.2,3.5L6.3,35.8z M14.8,47l3.4-9.6l4-0.1l1,3.4
	L14.8,47z M28.1,51.1l-2.8-9.8l2.9-2.2l2.8,2.2L28.1,51.1z M31.5,39.4l-3.3-2.6l-3.5,2.6l-1.2-4.1l-4.7,0.1l1.4-4.1l-4-2.8l3.5-2.5
	l-1.4-4.1l4.8,0l1.3-4.2l3.5,2.6l3.5-2.6l1.3,4.4l4.9-0.1l-1.3,4l3.2,2.4l-4,2.6l1.4,4.2l-4.1-0.2L31.5,39.4z M40.7,46.4l-7.5-5.8
	l1.1-3.5l3.4,0.1L40.7,46.4z M38.8,35.2l-1.3-3.6l3.4-2.3l8.7,6.4L38.8,35.2z"/>
<g>
	<polygon class="st1" points="85,11.2 77.6,22.2 70.3,11.2 60.4,11.2 73.5,30.8 73.5,30.8 73.5,45.3 81.7,45.3 81.7,30.8 81.7,30.8 
		90.2,18.2 99.3,18.2 99.3,45.3 107.5,45.3 107.5,18.2 117.1,18.2 117.1,11.2 85,11.2 	"/>
	<path class="st1" d="M141.5,11.2v7.1h6.1l-6.1,6.2v7.4c0,0.9-0.1,1.8-0.3,2.7c-0.2,0.8-0.6,1.6-1.1,2.2c-0.5,0.7-1.2,1.2-2,1.6
		c-0.8,0.4-1.8,0.6-3,0.6c-1.2,0-2.1-0.2-3-0.6c-0.8-0.4-1.5-0.9-2-1.6c-0.5-0.7-0.9-1.4-1.1-2.2c-0.2-0.8-0.4-1.7-0.4-2.7V11.2
		h-8.2v7.1h6.1l-6.1,6.1v8.1c0,2.1,0.3,3.9,1,5.6c0.7,1.7,1.6,3.1,2.9,4.3c1.3,1.2,2.8,2.1,4.6,2.8c1.8,0.7,3.8,1,6.1,1
		c2.2,0,4.2-0.3,6-1c1.8-0.7,3.4-1.6,4.6-2.8c1.3-1.2,2.3-2.7,3-4.3c0.7-1.7,1-3.6,1-5.6V11.2H141.5L141.5,11.2z"/>
</g>
<g>
	<path class="st1" d="M166.4,19.7v5.2h-2.9v-5.1l-5-7.9h3.4l3.1,5.2l3.2-5.2h3.3L166.4,19.7z"/>
	<path class="st1" d="M173.3,24.9v-13h2.9v13H173.3z"/>
	<path class="st1" d="M179.5,24.9v-13h2.9v10.4h6.5v2.6H179.5z"/>
	<path class="st1" d="M202.5,21c-0.3,0.8-0.8,1.5-1.4,2.1s-1.3,1-2.2,1.4c-0.8,0.3-1.8,0.5-2.8,0.5H191v-13h5.1c1,0,2,0.2,2.8,0.5
		c0.8,0.3,1.6,0.8,2.2,1.4c0.6,0.6,1.1,1.3,1.4,2.1c0.3,0.8,0.5,1.6,0.5,2.6v0C203,19.3,202.8,20.2,202.5,21z M200,18.4
		c0-0.6-0.1-1.1-0.3-1.6c-0.2-0.5-0.5-0.9-0.8-1.2c-0.3-0.3-0.8-0.6-1.2-0.8c-0.5-0.2-1-0.3-1.6-0.3h-2.2v7.9h2.2
		c0.6,0,1.1-0.1,1.6-0.3c0.5-0.2,0.9-0.5,1.2-0.8c0.3-0.3,0.6-0.8,0.8-1.2C199.9,19.6,200,19,200,18.4L200,18.4z"/>
	<path class="st1" d="M205.7,24.9v-13h2.9v13H205.7z"/>
	<path class="st1" d="M211.4,24.9v-2.2l7.2-8.3h-6.9v-2.5h10.6v2.2l-7.2,8.3h7.2v2.5H211.4z"/>
	<path class="st1" d="M236.5,14.5v10.4h-2.9V14.5h-4v-2.6h10.8v2.6H236.5z"/>
	<path class="st1" d="M242.6,24.9v-13h9.8v2.5h-7v2.6h6.1v2.5h-6.1v2.7h7.1v2.5H242.6z"/>
	<path class="st1" d="M265.5,23.8c-0.4,0.3-0.8,0.5-1.2,0.7c-0.4,0.2-0.9,0.4-1.4,0.5c-0.5,0.1-1.1,0.2-1.7,0.2
		c-1,0-1.8-0.2-2.7-0.5c-0.8-0.3-1.5-0.8-2.1-1.4c-0.6-0.6-1.1-1.3-1.4-2.1c-0.3-0.8-0.5-1.7-0.5-2.6v0c0-0.9,0.2-1.8,0.5-2.6
		c0.3-0.8,0.8-1.5,1.4-2.1c0.6-0.6,1.3-1.1,2.1-1.5c0.8-0.4,1.7-0.5,2.8-0.5c0.6,0,1.2,0,1.7,0.1c0.5,0.1,1,0.2,1.4,0.4
		c0.4,0.2,0.8,0.4,1.1,0.6c0.3,0.2,0.7,0.5,1,0.8l-1.8,2.1c-0.5-0.5-1-0.8-1.6-1.1c-0.5-0.3-1.1-0.4-1.8-0.4c-0.5,0-1.1,0.1-1.5,0.3
		c-0.5,0.2-0.9,0.5-1.2,0.9c-0.3,0.4-0.6,0.8-0.8,1.3c-0.2,0.5-0.3,1-0.3,1.6v0c0,0.6,0.1,1.1,0.3,1.6c0.2,0.5,0.4,0.9,0.8,1.3
		c0.3,0.4,0.7,0.7,1.2,0.9c0.5,0.2,1,0.3,1.5,0.3c0.7,0,1.4-0.1,1.9-0.4c0.5-0.3,1-0.6,1.5-1.1l1.8,1.8
		C266.2,23.2,265.8,23.5,265.5,23.8z"/>
	<path class="st1" d="M277,24.9v-5.2h-5.3v5.2h-2.9v-13h2.9v5.2h5.3v-5.2h2.9v13H277z"/>
	<path class="st1" d="M292.1,24.9l-6.3-8.3v8.3H283v-13h2.6l6.1,8v-8h2.8v13H292.1z"/>
	<path class="st1" d="M297.8,24.9v-13h2.9v13H297.8z"/>
	<path class="st1" d="M314.3,23.8c-0.4,0.3-0.8,0.5-1.2,0.7c-0.4,0.2-0.9,0.4-1.4,0.5c-0.5,0.1-1.1,0.2-1.7,0.2
		c-1,0-1.8-0.2-2.7-0.5s-1.5-0.8-2.1-1.4c-0.6-0.6-1.1-1.3-1.4-2.1c-0.3-0.8-0.5-1.7-0.5-2.6v0c0-0.9,0.2-1.8,0.5-2.6
		c0.3-0.8,0.8-1.5,1.4-2.1c0.6-0.6,1.3-1.1,2.1-1.5c0.8-0.4,1.7-0.5,2.8-0.5c0.6,0,1.2,0,1.7,0.1c0.5,0.1,1,0.2,1.4,0.4
		c0.4,0.2,0.8,0.4,1.1,0.6c0.3,0.2,0.7,0.5,1,0.8l-1.8,2.1c-0.5-0.5-1-0.8-1.6-1.1c-0.5-0.3-1.1-0.4-1.8-0.4c-0.5,0-1.1,0.1-1.5,0.3
		c-0.5,0.2-0.9,0.5-1.2,0.9c-0.3,0.4-0.6,0.8-0.8,1.3c-0.2,0.5-0.3,1-0.3,1.6v0c0,0.6,0.1,1.1,0.3,1.6c0.2,0.5,0.4,0.9,0.8,1.3
		c0.3,0.4,0.7,0.7,1.2,0.9c0.5,0.2,1,0.3,1.5,0.3c0.7,0,1.4-0.1,1.9-0.4c0.5-0.3,1-0.6,1.5-1.1l1.8,1.8
		C315,23.2,314.7,23.5,314.3,23.8z"/>
	<path class="st1" d="M327.3,24.9l-1.2-2.9h-5.5l-1.2,2.9h-2.9l5.6-13.1h2.6l5.6,13.1H327.3z M323.4,15.2l-1.7,4.2h3.5L323.4,15.2z"
		/>
	<path class="st1" d="M332.3,24.9v-13h2.9v10.4h6.5v2.6H332.3z"/>
</g>
<g>
	<path class="st1" d="M170.6,42.2c-0.3,0.7-0.6,1.3-1.1,1.8c-0.5,0.5-1.1,0.9-1.8,1.1c-0.7,0.2-1.5,0.4-2.4,0.4
		c-1.7,0-3.1-0.5-4.1-1.5c-1-1-1.5-2.4-1.5-4.3v-7.4h2.9v7.4c0,1.1,0.2,1.9,0.7,2.4c0.5,0.5,1.2,0.8,2.1,0.8c0.9,0,1.6-0.3,2.1-0.8
		c0.5-0.5,0.7-1.3,0.7-2.3v-7.5h2.9v7.4C171,40.7,170.9,41.5,170.6,42.2z"/>
	<path class="st1" d="M183.1,45.3l-6.3-8.3v8.3H174v-13h2.6l6.1,8v-8h2.8v13H183.1z"/>
	<path class="st1" d="M188.8,45.3v-13h2.9v13H188.8z"/>
	<path class="st1" d="M201.6,45.4h-2.5l-5.3-13.1h3.2l3.4,9.2l3.4-9.2h3.1L201.6,45.4z"/>
	<path class="st1" d="M208.9,45.3v-13h9.8v2.5h-7v2.6h6.1v2.5h-6.1v2.7h7.1v2.5H208.9z"/>
	<path class="st1" d="M229.3,45.3l-2.8-4.2h-2.3v4.2h-2.9v-13h6c1.6,0,2.8,0.4,3.6,1.1c0.9,0.8,1.3,1.8,1.3,3.2v0
		c0,1.1-0.3,1.9-0.8,2.6c-0.5,0.7-1.2,1.2-2,1.5l3.2,4.7H229.3z M229.3,36.8c0-0.6-0.2-1.1-0.6-1.4c-0.4-0.3-0.9-0.5-1.7-0.5h-2.8
		v3.7h2.9c0.7,0,1.3-0.2,1.6-0.5C229.1,37.8,229.3,37.4,229.3,36.8L229.3,36.8z"/>
	<path class="st1" d="M243.9,43.2c-0.2,0.5-0.6,0.9-1,1.3c-0.4,0.3-0.9,0.6-1.5,0.8c-0.6,0.2-1.2,0.3-1.9,0.3c-1,0-2-0.2-2.9-0.5
		c-1-0.3-1.8-0.9-2.6-1.6l1.7-2c0.6,0.5,1.2,0.9,1.8,1.2c0.6,0.3,1.3,0.4,2.1,0.4c0.6,0,1.1-0.1,1.4-0.3c0.3-0.2,0.5-0.5,0.5-0.9v0
		c0-0.2,0-0.3-0.1-0.5c-0.1-0.1-0.2-0.3-0.4-0.4c-0.2-0.1-0.5-0.2-0.8-0.4c-0.3-0.1-0.8-0.3-1.3-0.4c-0.7-0.2-1.3-0.3-1.8-0.5
		c-0.5-0.2-1-0.4-1.4-0.7c-0.4-0.3-0.7-0.7-0.9-1.1c-0.2-0.4-0.3-1-0.3-1.6v0c0-0.6,0.1-1.1,0.3-1.6c0.2-0.5,0.5-0.9,0.9-1.2
		c0.4-0.3,0.9-0.6,1.4-0.8c0.6-0.2,1.2-0.3,1.8-0.3c1,0,1.8,0.1,2.6,0.4c0.8,0.3,1.5,0.7,2.2,1.2l-1.5,2.2c-0.6-0.4-1.2-0.7-1.7-0.9
		c-0.6-0.2-1.1-0.3-1.7-0.3c-0.6,0-1,0.1-1.3,0.3c-0.3,0.2-0.4,0.5-0.4,0.8v0c0,0.2,0,0.4,0.1,0.5c0.1,0.2,0.2,0.3,0.4,0.4
		c0.2,0.1,0.5,0.2,0.9,0.4c0.4,0.1,0.8,0.2,1.4,0.4c0.7,0.2,1.2,0.4,1.8,0.6c0.5,0.2,1,0.5,1.3,0.8c0.4,0.3,0.6,0.7,0.8,1.1
		c0.2,0.4,0.3,0.9,0.3,1.5v0C244.2,42.1,244.1,42.7,243.9,43.2z"/>
	<path class="st1" d="M246.8,45.3v-13h2.9v13H246.8z"/>
	<path class="st1" d="M258.9,35v10.4H256V35h-4v-2.6h10.8V35H258.9z"/>
	<path class="st1" d="M271.6,40.1v5.2h-2.9v-5.1l-5-7.9h3.4l3.1,5.2l3.2-5.2h3.3L271.6,40.1z"/>
</g>
</svg>
